# xmcd CD database file
#
# Track frame offsets:
#	150
#	11787
#	34500
#	61762
#	82960
#	110065
#	139787
#	168240
#	186057
#	198587
#	220500
#	273775
#
# Disc length: 3918 seconds
#
# Revision: 13
# Processed by: cddbd v1.5.2PL0 Copyright (c) Steve Scherf et al.
# Submitted via: CDex 1.70beta2
#
DISCID=9b0f4c0c
DTITLE=X JAPAN - BLUE BLOOD
DYEAR=1989
DGENRE=Heavy Metal
TTITLE0=PROLOGUE (WORLD ANTHEM)
TTITLE1=BLUE BLOOD
TTITLE2=WEEK END
TTITLE3=EASY FIGHT RAMBLING
TTITLE4=X
TTITLE5=ENDLESS RAIN
TTITLE6=邏
TTITLE7=XCLAMATION
TTITLE8=繧ｪ繝ｫ繧ｬ繧ｹ繝
TTITLE9=CELEBRATION
TTITLE10=ROSE OF PAIN
TTITLE11=UNFINISHED
EXTD=YEAR: 1989
EXTT0=
EXTT1=
EXTT2=
EXTT3=
EXTT4=
EXTT5=
EXTT6=
EXTT7=
EXTT8=
EXTT9=
EXTT10=
EXTT11=
PLAYORDER=
